<svg aria-hidden="true" style="position:absolute;width:0;height:0" xmlns="http://www.w3.org/2000/svg" overflow="hidden"><defs><symbol id="icon-google-plus" viewBox="0 0 32 32"><path d="M10.181 14.294v3.494h5.775c-.231 1.5-1.744 4.394-5.775 4.394-3.475 0-6.313-2.881-6.313-6.431S6.706 9.32 10.181 9.32c1.981 0 3.3.844 4.056 1.569l2.762-2.662c-1.775-1.656-4.075-2.662-6.819-2.662C4.549 5.571-.001 10.121-.001 15.753s4.55 10.181 10.181 10.181c5.875 0 9.775-4.131 9.775-9.95a9.27 9.27 0 00-.163-1.688h-9.613zM32 14h-3v-3h-3v3h-3v3h3v3h3v-3h3z"/></symbol><symbol id="icon-facebook" viewBox="0 0 32 32"><path d="M19 6h5V0h-5c-3.86 0-7 3.14-7 7v3H8v6h4v16h6V16h5l1-6h-6V7c0-.542.458-1 1-1z"/></symbol><symbol id="icon-instagram" viewBox="0 0 32 32"><path d="M16 2.881c4.275 0 4.781.019 6.462.094 1.563.069 2.406.331 2.969.55a4.952 4.952 0 011.837 1.194 5.015 5.015 0 011.2 1.838c.219.563.481 1.412.55 2.969.075 1.688.094 2.194.094 6.463s-.019 4.781-.094 6.463c-.069 1.563-.331 2.406-.55 2.969a4.94 4.94 0 01-1.194 1.837 5.02 5.02 0 01-1.837 1.2c-.563.219-1.413.481-2.969.55-1.688.075-2.194.094-6.463.094s-4.781-.019-6.463-.094c-1.563-.069-2.406-.331-2.969-.55a4.952 4.952 0 01-1.838-1.194 5.02 5.02 0 01-1.2-1.837c-.219-.563-.481-1.413-.55-2.969-.075-1.688-.094-2.194-.094-6.463s.019-4.781.094-6.463c.069-1.563.331-2.406.55-2.969a4.964 4.964 0 011.194-1.838 5.015 5.015 0 011.838-1.2c.563-.219 1.412-.481 2.969-.55 1.681-.075 2.188-.094 6.463-.094zM16 0c-4.344 0-4.887.019-6.594.094-1.7.075-2.869.35-3.881.744-1.056.412-1.95.956-2.837 1.85a7.833 7.833 0 00-1.85 2.831C.444 6.538.169 7.7.094 9.4.019 11.113 0 11.656 0 16s.019 4.887.094 6.594c.075 1.7.35 2.869.744 3.881.413 1.056.956 1.95 1.85 2.837a7.82 7.82 0 002.831 1.844c1.019.394 2.181.669 3.881.744 1.706.075 2.25.094 6.594.094s4.888-.019 6.594-.094c1.7-.075 2.869-.35 3.881-.744 1.05-.406 1.944-.956 2.831-1.844s1.438-1.781 1.844-2.831c.394-1.019.669-2.181.744-3.881.075-1.706.094-2.25.094-6.594s-.019-4.887-.094-6.594c-.075-1.7-.35-2.869-.744-3.881a7.506 7.506 0 00-1.831-2.844A7.82 7.82 0 0026.482.843C25.463.449 24.301.174 22.601.099c-1.712-.081-2.256-.1-6.6-.1z"/><path d="M16 7.781c-4.537 0-8.219 3.681-8.219 8.219s3.681 8.219 8.219 8.219 8.219-3.681 8.219-8.219A8.221 8.221 0 0016 7.781zm0 13.55a5.331 5.331 0 110-10.663 5.331 5.331 0 010 10.663zM26.462 7.456a1.919 1.919 0 11-3.838 0 1.919 1.919 0 013.838 0z"/></symbol><symbol id="icon-twitter" viewBox="0 0 32 32"><path d="M32 7.075a12.941 12.941 0 01-3.769 1.031 6.601 6.601 0 002.887-3.631 13.21 13.21 0 01-4.169 1.594A6.565 6.565 0 0022.155 4a6.563 6.563 0 00-6.563 6.563c0 .512.056 1.012.169 1.494A18.635 18.635 0 012.23 5.195a6.56 6.56 0 00-.887 3.3 6.557 6.557 0 002.919 5.463 6.565 6.565 0 01-2.975-.819v.081a6.565 6.565 0 005.269 6.437 6.574 6.574 0 01-2.968.112 6.588 6.588 0 006.131 4.563 13.17 13.17 0 01-9.725 2.719 18.568 18.568 0 0010.069 2.95c12.075 0 18.681-10.006 18.681-18.681 0-.287-.006-.569-.019-.85A13.216 13.216 0 0032 7.076z"/></symbol><symbol id="icon-youtube" viewBox="0 0 32 32"><path d="M31.681 9.6s-.313-2.206-1.275-3.175C29.187 5.15 27.825 5.144 27.2 5.069c-4.475-.325-11.194-.325-11.194-.325h-.012s-6.719 0-11.194.325c-.625.075-1.987.081-3.206 1.356C.631 7.394.325 9.6.325 9.6s-.319 2.588-.319 5.181v2.425c0 2.587.319 5.181.319 5.181s.313 2.206 1.269 3.175c1.219 1.275 2.819 1.231 3.531 1.369 2.563.244 10.881.319 10.881.319s6.725-.012 11.2-.331c.625-.075 1.988-.081 3.206-1.356.962-.969 1.275-3.175 1.275-3.175s.319-2.587.319-5.181v-2.425c-.006-2.588-.325-5.181-.325-5.181zM12.694 20.15v-8.994l8.644 4.513-8.644 4.481z"/></symbol><symbol id="icon-dribbble" viewBox="0 0 32 32"><path d="M16 32C7.175 32 0 24.825 0 16S7.175 0 16 0s16 7.175 16 16-7.175 16-16 16zm13.494-13.812c-.469-.15-4.231-1.269-8.512-.581 1.788 4.912 2.512 8.912 2.656 9.744 3.063-2.075 5.25-5.356 5.856-9.163zM21.337 28.6c-.206-1.2-.994-5.375-2.913-10.363-.031.012-.063.019-.087.031-7.713 2.688-10.481 8.031-10.725 8.531a13.612 13.612 0 008.387 2.887c1.894 0 3.7-.387 5.338-1.087zM5.844 25.156c.313-.531 4.063-6.738 11.106-9.019.175-.056.356-.113.538-.162a50.041 50.041 0 00-1.106-2.319C9.563 15.7 2.938 15.612 2.338 15.606c-.006.137-.006.275-.006.419 0 3.506 1.331 6.712 3.512 9.131zM2.625 13.219c.612.006 6.244.031 12.637-1.662a86.017 86.017 0 00-5.069-7.906C6.368 5.457 3.505 8.982 2.624 13.22zM12.8 2.731a73.225 73.225 0 015.1 8c4.863-1.819 6.919-4.588 7.163-4.938A13.598 13.598 0 0016 2.349a14.22 14.22 0 00-3.2.381zm13.781 4.65c-.288.388-2.581 3.325-7.631 5.388.319.65.625 1.313.906 1.981.1.238.2.469.294.706 4.55-.569 9.069.344 9.519.438a13.628 13.628 0 00-3.087-8.512z"/></symbol><symbol id="icon-tumblr2" viewBox="0 0 32 32"><path d="M29 0H3C1.35 0 0 1.35 0 3v26c0 1.65 1.35 3 3 3h26c1.65 0 3-1.35 3-3V3c0-1.65-1.35-3-3-3zm-6.131 25.769c-.944.444-1.8.756-2.563.938-.762.175-1.594.269-2.481.269-1.012 0-1.606-.125-2.381-.381s-1.438-.619-1.988-1.087c-.55-.475-.925-.975-1.137-1.506S12 22.702 12 21.689v-7.744H9V10.82c.869-.281 1.875-.688 2.488-1.213a5.954 5.954 0 001.488-1.894c.375-.737.631-1.675.775-2.813h3.138V10h5.113v3.944h-5.106v5.662c0 1.281-.019 2.019.119 2.381s.475.738.844.95c.488.294 1.05.438 1.675.438 1.119 0 2.231-.363 3.337-1.087v3.481z"/></symbol><symbol id="icon-pinterest" viewBox="0 0 32 32"><path d="M16 2.138c-7.656 0-13.863 6.206-13.863 13.863 0 5.875 3.656 10.887 8.813 12.906-.119-1.094-.231-2.781.05-3.975.25-1.081 1.625-6.887 1.625-6.887s-.412-.831-.412-2.056c0-1.925 1.119-3.369 2.506-3.369 1.181 0 1.756.887 1.756 1.95 0 1.188-.756 2.969-1.15 4.613-.331 1.381.688 2.506 2.05 2.506 2.462 0 4.356-2.6 4.356-6.35 0-3.319-2.387-5.638-5.787-5.638-3.944 0-6.256 2.956-6.256 6.019 0 1.194.456 2.469 1.031 3.163a.408.408 0 01.094.4c-.106.438-.338 1.381-.387 1.575-.063.256-.2.306-.463.188-1.731-.806-2.813-3.337-2.813-5.369 0-4.375 3.175-8.387 9.156-8.387 4.806 0 8.544 3.425 8.544 8.006 0 4.775-3.012 8.625-7.194 8.625-1.406 0-2.725-.731-3.175-1.594 0 0-.694 2.644-.863 3.294-.313 1.206-1.156 2.712-1.725 3.631 1.3.4 2.675.619 4.106.619 7.656 0 13.863-6.206 13.863-13.863 0-7.662-6.206-13.869-13.863-13.869z"/></symbol></defs></svg>